<?xml version="1.0" standalone="no"?>
<!DOCTYPE svg PUBLIC "-//W3C//DTD SVG 20010904//EN"
 "http://www.w3.org/TR/2001/REC-SVG-20010904/DTD/svg10.dtd">
<svg version="1.0" xmlns="http://www.w3.org/2000/svg"
 width="693.000000pt" height="601.000000pt" viewBox="0 0 693.000000 601.000000"
 preserveAspectRatio="xMidYMid meet">

<g transform="translate(0.000000,601.000000) scale(0.100000,-0.100000)"
fill="#FFFFFF" stroke="none">
<path d="M3356 4069 l-580 -581 45 -37 c24 -20 169 -144 323 -276 153 -132
329 -283 391 -335 61 -52 171 -146 244 -207 72 -62 141 -113 152 -113 11 0 38
17 62 39 23 21 76 67 118 102 42 35 127 109 190 165 63 55 182 158 264 229 83
71 186 161 230 200 45 38 112 97 150 130 38 33 85 74 105 92 l35 32 -570 571
c-313 313 -572 570 -575 570 -3 0 -266 -262 -584 -581z"/>
<path d="M5310 3188 l0 -97 -93 -78 c-156 -131 -809 -684 -842 -713 -34 -31
-190 -164 -337 -288 l-97 -82 -188 156 c-492 408 -678 560 -725 593 -48 35
-48 33 -48 -753 l0 -731 480 -480 480 -480 455 455 455 455 0 362 c0 200 -3
363 -6 363 -8 0 -160 -128 -745 -630 -70 -59 -135 -113 -147 -119 -17 -9 -48
12 -248 177 -208 170 -446 358 -516 408 l-27 19 -1 304 0 304 48 -43 c26 -23
63 -57 82 -74 19 -18 160 -143 312 -279 246 -219 282 -247 312 -247 40 0 25
-12 356 270 146 124 384 327 530 450 146 124 316 269 379 322 63 54 118 98
123 98 4 0 8 -276 8 -612 l0 -613 415 415 c228 228 415 419 415 425 0 6 -187
197 -415 425 l-415 415 0 -97z"/>
<path d="M2135 2847 c-210 -210 -385 -388 -389 -395 -5 -9 113 -133 382 -403
278 -278 391 -385 396 -374 8 23 7 1555 -2 1555 -4 0 -178 -172 -387 -383z"/>
</g>
</svg>
